# xmcd
#
# Track frame offsets:
#	150
#	34354
#	64420
#	98131
#	125804
#	162447
#	190713
#	228126
#	256295
#	276627
#
# Disc length: 3924 seconds
#
# Revision: 1
# Processed by: cddbd v1.5.1PL0 Copyright (c) Steve Scherf et al.
# Submitted via: audiograbber 1.83.01
#
DISCID=940f520a
DTITLE=Sándor Márai - Die jungen Rebellen CD4
DYEAR=2001
DGENRE="Hörspiel"
TTITLE0=die jungen REBELLEN CD 4
TTITLE1=die jungen REBELLEN CD 4
TTITLE2=die jungen REBELLEN CD 4
TTITLE3=die jungen REBELLEN CD 4
TTITLE4=die jungen REBELLEN CD 4
TTITLE5=die jungen REBELLEN CD 4
TTITLE6=die jungen REBELLEN CD 4
TTITLE7=die jungen REBELLEN CD 4
TTITLE8=die jungen REBELLEN CD 4
TTITLE9=die jungen REBELLEN CD 4
EXTD=
EXTT0=
EXTT1=
EXTT2=
EXTT3=
EXTT4=
EXTT5=
EXTT6=
EXTT7=
EXTT8=
EXTT9=
PLAYORDER=
